<svg xmlns="http://www.w3.org/2000/svg" viewBox="0 0 256 256" width="256" height="256">
  <defs>
    <!-- Navy background gradient -->
    <linearGradient id="bgGrad" x1="0%" y1="0%" x2="100%" y2="100%">
      <stop offset="0%" stop-color="#0d1b3e"/>
      <stop offset="100%" stop-color="#0a1628"/>
    </linearGradient>

    <!-- 3D N ribbon – left face (darker blue) -->
    <linearGradient id="nLeft" x1="0%" y1="0%" x2="100%" y2="100%">
      <stop offset="0%" stop-color="#1a6ecf"/>
      <stop offset="100%" stop-color="#0d4fa8"/>
    </linearGradient>

    <!-- 3D N ribbon – right face (lighter cyan) -->
    <linearGradient id="nRight" x1="0%" y1="0%" x2="100%" y2="0%">
      <stop offset="0%" stop-color="#29b6e8"/>
      <stop offset="100%" stop-color="#55d4f5"/>
    </linearGradient>

    <!-- 3D N ribbon – top/highlight face -->
    <linearGradient id="nTop" x1="0%" y1="0%" x2="100%" y2="0%">
      <stop offset="0%" stop-color="#3ec6f5"/>
      <stop offset="100%" stop-color="#7ae0ff"/>
    </linearGradient>

    <!-- Cyan text gradient -->
    <linearGradient id="cyanGrad" x1="0%" y1="0%" x2="100%" y2="0%">
      <stop offset="0%" stop-color="#29b6e8"/>
      <stop offset="100%" stop-color="#55d4f5"/>
    </linearGradient>
  </defs>

  <!-- Background rounded square -->
  <rect width="256" height="256" rx="50" ry="50" fill="url(#bgGrad)"/>

  <!-- ═══ 3-D ribbon "N" ═══
       Built from parallelogram panels to simulate a folded ribbon.
       Left vertical bar, diagonal stroke, right vertical bar. -->

  <!-- Left bar – front face -->
  <polygon points="52,35 74,35 74,148 52,148" fill="url(#nLeft)"/>
  <!-- Left bar – top bevel -->
  <polygon points="52,35 74,35 82,27 60,27" fill="url(#nTop)"/>
  <!-- Left bar – right bevel -->
  <polygon points="74,35 82,27 82,140 74,148" fill="url(#nRight)"/>

  <!-- Diagonal stroke – front face -->
  <polygon points="74,35 98,35 158,148 134,148" fill="url(#nLeft)"/>
  <!-- Diagonal – top bevel -->
  <polygon points="74,35 98,35 106,27 82,27" fill="url(#nTop)"/>
  <!-- Diagonal – right bevel (thin highlight) -->
  <polygon points="98,35 106,27 166,140 158,148" fill="url(#nRight)"/>

  <!-- Right bar – front face -->
  <polygon points="134,35 156,35 156,148 134,148" fill="url(#nLeft)"/>
  <!-- Right bar – top bevel -->
  <polygon points="134,35 156,35 164,27 142,27" fill="url(#nTop)"/>
  <!-- Right bar – right bevel -->
  <polygon points="156,35 164,27 164,140 156,148" fill="url(#nRight)"/>

  <!-- ═══ "NASDAQ" text ═══ -->
  <text
    x="128" y="185"
    font-family="Arial Black, Arial, sans-serif"
    font-weight="900"
    font-size="38"
    fill="white"
    text-anchor="middle"
    letter-spacing="1">NASDAQ</text>

  <!-- ═══ "MENTOR APP" text ═══ -->
  <text
    x="108" y="208"
    font-family="Arial, sans-serif"
    font-weight="700"
    font-size="16"
    fill="url(#cyanGrad)"
    text-anchor="middle"
    letter-spacing="2">MENTOR APP</text>

  <!-- ═══ "CHECKLIST" text ═══ -->
  <text
    x="104" y="228"
    font-family="Arial, sans-serif"
    font-weight="700"
    font-size="15"
    fill="white"
    text-anchor="middle"
    letter-spacing="2">CHECKLIST</text>

  <!-- ═══ Checkbox icon ═══ -->
  <!-- Box -->
  <rect x="190" y="213" width="22" height="22" rx="4" ry="4"
        fill="none" stroke="url(#cyanGrad)" stroke-width="2.5"/>
  <!-- Checkmark -->
  <polyline points="194,224 198,229 208,218"
            fill="none" stroke="#29b6e8" stroke-width="2.5"
            stroke-linecap="round" stroke-linejoin="round"/>
</svg>
