<svg xmlns="http://www.w3.org/2000/svg" viewBox="0 0 256 256" width="256" height="256">
  <defs>
    <linearGradient id="bgGrad" x1="0%" y1="0%" x2="100%" y2="100%">
      <stop offset="0%" stop-color="#071120"/>
      <stop offset="100%" stop-color="#111c34"/>
    </linearGradient>
    <linearGradient id="nGrad" x1="0%" y1="0%" x2="100%" y2="100%">
      <stop offset="0%" stop-color="#2563eb"/>
      <stop offset="60%" stop-color="#22d3ee"/>
      <stop offset="100%" stop-color="#10b981"/>
    </linearGradient>
    <linearGradient id="arrowGrad" x1="0%" y1="100%" x2="100%" y2="0%">
      <stop offset="0%" stop-color="#22d3ee"/>
      <stop offset="100%" stop-color="#e0f2fe"/>
    </linearGradient>
    <clipPath id="rounded">
      <rect width="256" height="256" rx="52" ry="52"/>
    </clipPath>
  </defs>

  <!-- Background -->
  <rect width="256" height="256" rx="52" ry="52" fill="url(#bgGrad)"/>

  <!-- Subtle grid lines -->
  <g clip-path="url(#rounded)" opacity="0.08" stroke="#4fa3d4" stroke-width="1">
    <line x1="0" y1="64" x2="256" y2="64"/>
    <line x1="0" y1="128" x2="256" y2="128"/>
    <line x1="0" y1="192" x2="256" y2="192"/>
    <line x1="64" y1="0" x2="64" y2="256"/>
    <line x1="128" y1="0" x2="128" y2="256"/>
    <line x1="192" y1="0" x2="192" y2="256"/>
  </g>

  <!-- Candlesticks (background decoration) -->
  <g clip-path="url(#rounded)" opacity="0.22">
    <!-- candle 1 -->
    <rect x="38" y="140" width="8" height="52" rx="2" fill="#10b981"/>
    <line x1="42" y1="130" x2="42" y2="145" stroke="#10b981" stroke-width="2"/>
    <line x1="42" y1="192" x2="42" y2="200" stroke="#10b981" stroke-width="2"/>
    <!-- candle 2 -->
    <rect x="58" y="120" width="8" height="40" rx="2" fill="#ef4444"/>
    <line x1="62" y1="110" x2="62" y2="122" stroke="#ef4444" stroke-width="2"/>
    <line x1="62" y1="160" x2="62" y2="170" stroke="#ef4444" stroke-width="2"/>
    <!-- candle 3 -->
    <rect x="190" y="108" width="8" height="48" rx="2" fill="#10b981"/>
    <line x1="194" y1="98" x2="194" y2="110" stroke="#10b981" stroke-width="2"/>
    <line x1="194" y1="156" x2="194" y2="165" stroke="#10b981" stroke-width="2"/>
    <!-- candle 4 -->
    <rect x="210" y="88" width="8" height="56" rx="2" fill="#10b981"/>
    <line x1="214" y1="78" x2="214" y2="90" stroke="#10b981" stroke-width="2"/>
    <line x1="214" y1="144" x2="214" y2="154" stroke="#10b981" stroke-width="2"/>
  </g>

  <!-- The "N" letter -->
  <path d="M 72 185 L 72 75 L 100 75 L 155 150 L 155 75 L 183 75 L 183 185 L 155 185 L 100 110 L 100 185 Z"
        fill="url(#nGrad)"/>

  <!-- Arrow shaft + head overlaying top-right of N -->
  <g>
    <!-- shaft -->
    <line x1="148" y1="130" x2="200" y2="55" stroke="url(#arrowGrad)" stroke-width="10" stroke-linecap="round"/>
    <!-- arrowhead -->
    <polygon points="200,55 175,58 193,76" fill="white" opacity="0.92"/>
  </g>
</svg>
